<?xml version="1.0" encoding="UTF-8" standalone="no"?>
<!DOCTYPE svg PUBLIC "-//W3C//DTD SVG 1.1//EN" "http://www.w3.org/Graphics/SVG/1.1/DTD/svg11.dtd">
<svg width="100%" height="100%" viewBox="0 0 5000 5000" version="1.1" xmlns="http://www.w3.org/2000/svg" xmlns:xlink="http://www.w3.org/1999/xlink" xml:space="preserve" xmlns:serif="http://www.serif.com/" style="fill-rule:evenodd;clip-rule:evenodd;stroke-linejoin:round;stroke-miterlimit:2;">
    <g transform="matrix(1,0,0,1,0,-10264)">
        <g id="Prancheta4" transform="matrix(1,0,0,1,0,-0.145038)">
            <rect x="0" y="10264.145" width="5000" height="5000" style="fill:none;"/>
            <g transform="matrix(0.770946,0,0,0.770946,-3320.64277,10411.150034)">
                <g transform="matrix(0.970359,0,0,1.027634,4632.768012,-503.42157)">
                    <ellipse cx="3006.343" cy="2922.657" rx="937.43" ry="846.758" style="fill:white;"/>
                </g>
                <g transform="matrix(0.877272,0,0,0.929053,4912.618818,-244.886086)">
                    <ellipse cx="3006.343" cy="2922.657" rx="937.43" ry="846.758" style="fill:rgb(83,149,207);"/>
                </g>
                <g transform="matrix(0.877272,0,0,0.929053,4912.618818,-244.886086)">
                    <path d="M3006.343,3769.415C2488.962,3769.415 2068.914,3389.996 2068.914,2922.657C2068.914,2455.319 2488.962,2075.899 3006.343,2075.899L3006.343,3769.415Z" style="fill:rgb(30,85,168);"/>
                </g>
                <g transform="matrix(0.961394,0,0,0.98212,5108.120717,-326.071302)">
                    <path d="M1994.611,3147.472C1896.144,3096.528 1815.764,2996.699 1784.075,2869.726C1730.448,2654.842 1836.454,2443.064 2020.65,2397.095C2204.847,2351.126 2397.929,2488.263 2451.556,2703.147C2459.195,2733.756 2450.699,2774.467 2466.262,2800.951C2481.935,2827.622 2505.087,2863.176 2539.937,2863.176C2565.748,2863.176 2597.162,2829.428 2610.949,2802.757C2624.736,2776.085 2619.836,2737.133 2628.317,2703.147C2681.944,2488.263 2875.027,2351.126 3059.223,2397.095C3243.419,2443.064 3349.425,2654.842 3295.798,2869.726C3262.092,3004.786 3173.294,3109.133 3066.237,3156.606C3104.664,3176.169 3139.092,3209.554 3113.124,3263.314C3071.944,3348.568 2813.849,3471.877 2732.877,3496.152C2657.909,3518.627 2578.183,3537.669 2500,3534.077C2424.163,3530.593 2349.855,3507.72 2277.997,3483.229C2175.784,3448.392 1994.834,3340.285 1955.455,3284.012C1899.003,3203.337 1938.441,3163.639 1994.611,3147.472Z" style="fill:white;"/>
                </g>
                <g transform="matrix(1,0,0,1,437.773891,-187.63114)">
                    <g transform="matrix(0.927809,-0.373056,0.344601,0.857042,3713.027227,1313.562852)">
                        <path d="M2808.652,2955.548C2804.976,2894.566 2823.417,2828.252 2864.453,2772.479C2877.076,2755.323 2891.075,2740.2 2906.031,2727.198C2984.319,2659.14 3088.832,2649.209 3159.462,2710.113C3243.585,2782.651 3247.99,2928.38 3169.292,3035.339C3161.276,3046.235 3152.705,3056.31 3143.686,3065.543C3149.038,3069.426 3154.183,3073.437 3159.109,3077.565C3162.457,3080.37 3165.704,3083.229 3168.845,3086.138C3170.871,3090.383 3171.244,3095.522 3169.47,3100.299C3166.474,3108.365 3158.398,3112.587 3150.831,3110.387C3147.758,3107.735 3144.595,3105.128 3141.346,3102.571C3140.958,3102.266 3140.569,3101.961 3140.179,3101.657C3133.729,3096.635 3126.944,3091.805 3119.851,3087.192C3097.882,3072.905 3072.947,3060.695 3045.792,3051.286C3028.265,3045.213 3009.814,3040.307 2990.639,3036.762C2988.738,3036.411 2986.84,3036.075 2984.945,3035.754C2959.872,3031.505 2935.298,3029.894 2911.784,3030.668C2898.363,3031.11 2885.288,3032.328 2872.662,3034.278C2858.477,3036.468 2844.861,3039.58 2831.96,3043.548C2828.193,3036.23 2824.871,3028.636 2821.997,3020.812C2814.481,3000.352 2810.024,2978.322 2808.652,2955.548ZM3018.11,3009.828C3042.105,3015.338 3064.821,3022.989 3085.835,3032.37C3093.551,3027.513 3101.086,3021.998 3108.363,3015.822C3181.082,2954.104 3200.712,2849.579 3152.171,2782.551C3115.104,2731.366 3048.935,2716.754 2987.344,2740.188C3032.58,2766.299 3063.891,2822.385 3063.891,2887.296C3063.891,2936.141 3046.161,2979.989 3018.11,3009.828Z" style="fill:rgb(30,85,168);"/>
                    </g>
                    <g transform="matrix(-0.927809,-0.373056,-0.344601,0.857042,10511.424991,1313.562852)">
                        <path d="M3194.141,2750.79C3184.696,2735.619 3173.131,2721.899 3159.462,2710.113C3097.97,2657.089 3010.795,2657.756 2937.603,2703.729C2926.727,2710.561 2916.159,2718.393 2906.031,2727.198C2891.075,2740.2 2877.076,2755.323 2864.453,2772.479C2823.417,2828.252 2804.976,2894.566 2808.652,2955.548C2810.024,2978.322 2814.481,3000.352 2821.997,3020.812C2824.871,3028.636 2828.193,3036.23 2831.96,3043.548C2844.861,3039.58 2858.477,3036.468 2872.662,3034.278C2885.288,3032.328 2898.363,3031.11 2911.784,3030.668C2935.298,3029.894 2959.872,3031.505 2984.945,3035.754C2986.84,3036.075 2988.738,3036.411 2990.639,3036.762C3009.814,3040.307 3028.265,3045.213 3045.792,3051.286C3072.947,3060.695 3097.882,3072.905 3119.851,3087.192C3126.944,3091.805 3133.729,3096.635 3140.179,3101.657C3140.569,3101.961 3140.958,3102.266 3141.346,3102.571C3144.595,3105.128 3147.758,3107.735 3150.831,3110.387C3158.398,3112.587 3166.474,3108.365 3169.47,3100.299C3171.244,3095.522 3170.871,3090.383 3168.845,3086.138C3165.704,3083.229 3162.457,3080.37 3159.109,3077.565C3154.183,3073.437 3149.038,3069.426 3143.686,3065.543C3152.705,3056.31 3161.276,3046.235 3169.292,3035.339C3235.202,2945.76 3242.822,2828.987 3194.141,2750.79ZM3079.491,2732.394L3087.284,2836.914L3162.585,2906.077L3076.445,2926.767L3042.649,3025.161L2986.585,2943.904L2886.38,2970.454L2942.273,2880.347L2904.072,2802.871L2997.629,2808.535L3079.491,2732.394Z" style="fill:rgb(30,85,168);"/>
                    </g>
                </g>
                <g transform="matrix(1.109938,-0.223304,0.219801,1.092524,4123.359157,31.135252)">
                    <g transform="matrix(1,0,0,1,0,-15.046897)">
                        <path d="M2780.637,1909.825L2780.637,2079.225L2501.264,2165.6L2221.89,2079.225L2221.89,1910.616L2500,1997.599L2780.637,1909.825ZM2500,1720.022L2836.796,1825.36L2500,1930.698L2163.204,1825.36L2500,1720.022Z" style="fill:rgb(83,149,207);"/>
                    </g>
                    <g transform="matrix(1,0,-0,1,-0,-15.046894)">
                        <path d="M2154.991,1889.692L2007.105,1843.439L2500,1689.278L2992.895,1843.439L2845.009,1889.692L2845.009,2111.075L2501.264,2217.352L2154.991,2110.293L2154.991,1889.692ZM2500,1720.022L2163.204,1825.36L2500,1930.698L2836.796,1825.36L2500,1720.022ZM2780.637,1909.825L2500,1997.599L2221.89,1910.616L2221.89,2079.225L2501.264,2165.6L2780.637,2079.225L2780.637,1909.825Z" style="fill:white;"/>
                    </g>
                    <g transform="matrix(1,0,0,1,49.543116,548.408057)">
                        <path d="M2450.457,1601.754L2450.457,1434.144L2731.094,1346.37L2731.094,1515.77L2451.721,1602.145L2450.457,1601.754ZM2450.457,1367.243L2450.457,1156.567L2787.253,1261.905L2450.457,1367.243Z" style="fill:rgb(30,85,168);"/>
                    </g>
                </g>
                <g transform="matrix(1.132129,0.010547,-0.010381,1.114367,-1221.515418,-361.800616)">
                    <path d="M7974.916,1605.173L8003.434,1676.143L7930.022,1676.143L7958.541,1605.173C7951.313,1602.012 7946.257,1594.795 7946.257,1586.407C7946.257,1577.548 7951.897,1569.996 7959.78,1567.148L7959.78,1477.201L7973.677,1477.201L7973.677,1567.148C7981.559,1569.996 7987.199,1577.548 7987.199,1586.407C7987.199,1594.795 7982.143,1602.012 7974.916,1605.173Z" style="fill:white;"/>
                </g>
                <g transform="matrix(1.307911,0,0,1.307911,-2172.464045,-2193.343994)">
                    <path d="M7244.192,3837.797C7244.192,3827.256 7268.657,3822.485 7279.861,3816.217C7282.491,3814.746 7333.382,3793.457 7388.615,3739.767C7415.906,3713.238 7461.474,3710.216 7488.845,3739.227C7540.5,3793.975 7578.135,3813.184 7584.275,3816.286C7598.31,3823.377 7622.977,3827.256 7622.977,3837.797C7622.977,3848.338 7599.716,3856.895 7599.716,3856.895C7599.716,3856.895 7535.943,3876.835 7510.329,3886.368C7488.454,3894.509 7471.047,3911.714 7446.029,3914.092L7444.786,3914.628L7443.871,3914.277C7440.844,3914.509 7437.782,3914.628 7434.688,3914.628C7401.156,3914.628 7379.509,3888.572 7351.637,3878.95C7324.216,3869.484 7267.453,3856.895 7267.453,3856.895C7267.453,3856.895 7244.192,3848.338 7244.192,3837.797Z" style="fill:rgb(248,255,135);"/>
                </g>
                <g transform="matrix(1.307911,0,0,1.307911,4294.874443,-1125.388104)">
                    <path d="M2299.406,3020.924C2299.406,3010.383 2323.871,3005.611 2335.075,2999.344C2337.705,2997.872 2388.596,2976.583 2443.829,2922.893C2471.12,2896.365 2516.688,2893.343 2544.059,2922.353C2595.714,2977.102 2633.349,2996.311 2639.489,2999.413C2653.524,3006.503 2678.19,3010.383 2678.19,3020.924C2678.19,3031.464 2654.93,3040.022 2654.93,3040.022C2654.93,3040.022 2591.157,3059.961 2565.543,3069.494C2543.668,3077.635 2526.261,3094.84 2501.243,3097.218L2500,3097.754L2499.085,3097.404C2496.058,3097.636 2492.995,3097.754 2489.902,3097.754C2456.37,3097.754 2434.723,3071.699 2406.85,3062.077C2379.43,3052.611 2322.666,3040.022 2322.666,3040.022C2322.666,3040.022 2299.406,3031.464 2299.406,3020.924ZM2335.866,3021.84C2353.199,3025.847 2392.138,3035.14 2413.593,3042.546C2426.168,3046.888 2437.711,3054.021 2449.346,3061.226C2461.639,3068.839 2473.919,3077.093 2489.902,3077.093C2492.463,3077.093 2494.999,3076.995 2497.505,3076.803C2497.803,3076.78 2498.101,3076.764 2498.399,3076.754C2498.694,3076.713 2498.99,3076.678 2499.288,3076.65C2511.21,3075.517 2520.766,3069.663 2530.408,3064.149C2539.478,3058.963 2548.53,3053.78 2558.336,3050.13C2578.802,3042.514 2623.344,3028.323 2641.167,3022.693C2636.978,3020.993 2632.988,3019.277 2630.172,3017.854C2623.675,3014.572 2583.685,2994.46 2529.031,2936.532C2509.694,2916.037 2477.51,2918.967 2458.23,2937.708C2400.763,2993.571 2347.899,3015.844 2345.162,3017.375C2342.966,3018.604 2339.564,3020.201 2335.866,3021.84Z" style="fill:rgb(255,222,104);"/>
                </g>
            </g>
            <g transform="matrix(1,0,0,1,-5631.926873,11230.97266)">
                <g transform="matrix(1.234005,0,0,1.235723,-855.121287,-2092.311717)">
                    <path d="M6555.282,3855.71C6627.432,3855.71 6691.52,3829.51 6747.144,3777.111L6672.979,3703.752C6638.718,3735.594 6599.62,3751.314 6555.282,3751.314C6524.245,3751.314 6495.627,3743.656 6470.233,3728.339C6418.64,3698.109 6385.991,3644.5 6385.991,3582.024C6385.991,3550.987 6393.649,3522.369 6408.966,3496.572C6439.197,3445.382 6492.805,3412.733 6555.282,3412.733C6600.023,3412.733 6673.382,3460.699 6673.382,3460.699L6746.741,3386.13C6691.117,3334.134 6627.432,3308.337 6555.282,3308.337C6504.897,3308.337 6459.35,3320.429 6417.834,3345.017C6376.317,3369.604 6343.265,3402.656 6318.678,3444.173C6294.09,3485.689 6281.595,3531.64 6281.595,3582.024C6281.595,3632.408 6294.09,3677.955 6318.678,3719.472C6343.265,3760.988 6376.317,3794.04 6417.834,3818.627C6459.35,3843.215 6504.897,3855.71 6555.282,3855.71Z" style="fill:white;fill-rule:nonzero;"/>
                    <path d="M7146.186,3573.559C7146.186,3517.935 7131.676,3474.403 7102.251,3442.56C7072.827,3411.121 7030.505,3395.401 6975.284,3395.401C6938.201,3395.401 6905.149,3403.866 6876.531,3420.391C6844.285,3439.336 6828.162,3464.73 6828.162,3496.975C6828.162,3538.895 6851.137,3569.125 6897.087,3587.264C6914.823,3590.891 6923.69,3596.937 6923.69,3605.402C6923.69,3611.851 6916.435,3615.479 6901.924,3615.882L6888.22,3615.479C6866.857,3615.479 6837.03,3617.091 6806.799,3632.005C6776.569,3646.918 6755.206,3676.746 6755.206,3732.773C6755.206,3763.003 6762.461,3787.188 6777.375,3805.326C6806.799,3841.2 6857.586,3855.71 6914.016,3855.71C6963.997,3855.71 7008.336,3838.781 7047.031,3804.52L7047.031,3855.71L7146.186,3855.71L7146.186,3573.559ZM6922.884,3764.213C6903.94,3764.213 6887.817,3760.585 6874.515,3753.33C6861.214,3746.477 6854.362,3736.401 6854.362,3723.905C6854.362,3700.124 6880.158,3688.838 6914.016,3688.435C6957.145,3687.629 6990.197,3674.73 7012.769,3650.143C7022.04,3640.066 7026.474,3627.168 7026.474,3610.642C7026.474,3584.442 7016.397,3565.498 6996.243,3553.809C6978.508,3543.732 6958.354,3537.686 6941.828,3528.415C6932.155,3522.369 6927.318,3515.114 6927.318,3505.843C6927.318,3491.332 6941.828,3476.016 6977.299,3476.016C6995.034,3476.016 7010.351,3482.465 7022.846,3494.96C7035.341,3507.455 7041.791,3525.19 7041.791,3548.166L7041.791,3642.888C7041.791,3683.195 7028.892,3714.232 7002.692,3735.998C6980.523,3754.136 6953.921,3763.81 6922.884,3764.213Z" style="fill:white;fill-rule:nonzero;"/>
                    <rect x="7212.29" y="3395.401" width="103.993" height="460.309" style="fill:white;fill-rule:nonzero;"/>
                    <path d="M7498.875,3825.077C7525.075,3845.633 7553.693,3855.71 7584.73,3855.71C7658.895,3855.71 7713.31,3818.627 7747.168,3763.407C7774.577,3717.859 7788.282,3666.669 7788.282,3609.03C7788.282,3597.34 7787.072,3580.008 7784.654,3557.436C7782.235,3535.267 7774.174,3510.277 7760.469,3482.465C7733.061,3427.647 7685.498,3390.161 7617.379,3390.161C7572.638,3390.161 7533.136,3409.509 7498.875,3448.204L7498.875,3390.161L7394.882,3390.161L7394.882,3989.53L7498.875,3989.53L7498.875,3825.077ZM7584.73,3751.314C7552.887,3751.314 7519.835,3731.161 7498.875,3700.124L7498.875,3673.924C7502.906,3627.168 7514.998,3586.861 7534.749,3552.599C7556.918,3513.904 7584.73,3494.557 7617.379,3494.557C7633.098,3494.557 7646.4,3500.603 7656.88,3513.098C7675.421,3535.267 7684.692,3566.304 7684.692,3606.208C7684.692,3617.494 7685.901,3646.112 7670.584,3684.807C7655.267,3723.502 7626.649,3751.314 7584.73,3751.314Z" style="fill:white;fill-rule:nonzero;"/>
                    <path d="M8051.488,3855.71C8094.214,3855.71 8133.312,3845.23 8168.379,3824.271C8203.447,3803.311 8231.662,3775.096 8252.621,3740.028C8273.581,3704.961 8284.061,3665.863 8284.061,3623.137C8284.061,3579.202 8273.984,3539.701 8254.234,3504.634C8234.08,3469.566 8206.671,3441.754 8171.604,3421.198C8136.536,3400.641 8096.229,3390.161 8051.488,3390.161C8008.359,3390.161 7969.261,3400.641 7934.194,3421.601C7899.127,3442.56 7870.911,3470.776 7850.355,3505.843C7829.395,3540.91 7818.915,3580.008 7818.915,3623.137C7818.915,3665.863 7829.395,3704.961 7850.355,3740.028C7870.911,3775.096 7899.127,3803.311 7934.194,3824.271C7969.261,3845.23 8008.359,3855.71 8051.488,3855.71ZM8051.488,3751.314C8016.018,3751.314 7985.787,3738.819 7960.797,3713.829C7935.403,3688.838 7922.908,3658.608 7922.908,3623.137C7922.908,3587.667 7935.403,3557.436 7960.797,3532.043C7985.787,3507.052 8016.018,3494.557 8051.488,3494.557C8087.362,3494.557 8117.592,3507.052 8142.583,3532.043C8167.17,3557.436 8179.665,3587.667 8179.665,3623.137C8179.665,3658.608 8167.17,3688.838 8142.179,3713.829C8117.189,3738.819 8086.959,3751.314 8051.488,3751.314Z" style="fill:white;fill-rule:nonzero;"/>
                </g>
                <g transform="matrix(1,0,0,1,7105.544853,-687.157317)">
                    <path d="M993.186,2553.346L1033.512,2631.051L1105.506,2655.425L1055.099,2697.727L1071.977,2777.283L1003.984,2728.502L939.076,2768.027L941.145,2689.396L882.099,2648.946L958.104,2623.65L993.186,2553.346Z" style="fill:white;"/>
                </g>
            </g>
        </g>
    </g>
</svg>
